<svg width="41" height="40" viewBox="0 0 41 40" fill="none" xmlns="http://www.w3.org/2000/svg">
<path d="M20.418 39.8398C9.44141 39.8398 0.496094 30.9141 0.496094 19.918C0.496094 8.94141 9.44141 -0.00390625 20.418 -0.00390625C31.4141 -0.00390625 40.3398 8.94141 40.3398 19.918C40.3398 30.9141 31.4141 39.8398 20.418 39.8398ZM20.418 20.9727C20.7305 20.9727 21.043 20.8555 21.3359 20.582L31.2773 11.8516C30.7109 11.5195 30.1055 11.3633 29.3047 11.3633H11.5508C10.7109 11.3633 10.125 11.5 9.57812 11.832L19.5 20.582C19.793 20.8555 20.125 20.9727 20.418 20.9727ZM8.69922 26.8516L15.9844 19.5273L8.66016 13.0625C8.5625 13.2773 8.42578 13.7852 8.42578 14.4297V25.4062C8.42578 26.0312 8.52344 26.4609 8.69922 26.8516ZM32.1562 26.8516C32.3125 26.4609 32.3906 26.0117 32.3906 25.4062V14.4297C32.3906 13.7852 32.2734 13.2773 32.1758 13.082L24.832 19.5273L32.1562 26.8516ZM11.2578 28.4727H29.5781C30.2812 28.4727 30.8281 28.2969 31.2188 28.0625L23.6797 20.543L22.2734 21.8125C21.6875 22.3203 21.043 22.5742 20.418 22.5742C19.793 22.5742 19.1484 22.3203 18.582 21.8125L17.1562 20.543L9.61719 28.0625C10.0078 28.3164 10.5547 28.4727 11.2578 28.4727Z" fill="black"/>
</svg>
